<svg width="34" height="34" viewBox="0 0 34 34" fill="none" xmlns="http://www.w3.org/2000/svg">
    <circle cx="17" cy="17" r="17" fill="#F8F9FC"/>
    <path d="M17.0196 7.91003C13.7096 7.91003 11.0196 10.6 11.0196 13.91V16.8C11.0196 17.41 10.7596 18.34 10.4496 18.86L9.2996 20.77C8.5896 21.95 9.0796 23.26 10.3796 23.7C14.6896 25.14 19.3396 25.14 23.6496 23.7C24.8596 23.3 25.3896 21.87 24.7296 20.77L23.5796 18.86C23.2796 18.34 23.0196 17.41 23.0196 16.8V13.91C23.0196 10.61 20.3196 7.91003 17.0196 7.91003Z" stroke="#121212" stroke-width="1.5" stroke-miterlimit="10" stroke-linecap="round"/>
    <path d="M18.8699 8.19994C18.5599 8.10994 18.2399 8.03994 17.9099 7.99994C16.9499 7.87994 16.0299 7.94994 15.1699 8.19994C15.4599 7.45994 16.1799 6.93994 17.0199 6.93994C17.8599 6.93994 18.5799 7.45994 18.8699 8.19994Z" stroke="#121212" stroke-width="1.5" stroke-miterlimit="10" stroke-linecap="round" stroke-linejoin="round"/>
    <path d="M20.0195 24.0601C20.0195 25.7101 18.6695 27.0601 17.0195 27.0601C16.1995 27.0601 15.4395 26.7201 14.8995 26.1801C14.3595 25.6401 14.0195 24.8801 14.0195 24.0601" stroke="#121212" stroke-width="1.5" stroke-miterlimit="10"/>
    <circle cx="28.5" cy="4.5" r="4.5" fill="#ED5B3A"/>
</svg>
